<?xml version="1.0" encoding="UTF-8"?>
<svg width="752pt" height="752pt" version="1.1" viewBox="0 0 752 752" xmlns="http://www.w3.org/2000/svg">
 <path d="m383.45 215.81c1.7188-2.8906 5.6328-4.1875 8.7227-2.8281 1.9844 0.75 3.332 2.5078 4.2109 4.3672 7.2422 15.809 20.887 28.445 36.973 34.93 3.7188 1.4688 7.6094 2.4219 11.332 3.8867 14.668 5.5508 27.621 15.41 36.996 27.969 10.25 13.602 16.277 30.34 17.023 47.359 0.57422 11.871-1.3438 23.855-5.6367 34.945 6.7539-0.082031 13.492 0.23438 20.246 0.10547-1.4609-5.1797-1.6289-10.855 0.25391-15.953 2.207-6.5352 7.3242-11.957 13.613-14.742 6.3906-2.7422 14.008-2.7227 20.277 0.35938 3.9492 1.7539 7.0234 4.8594 10.059 7.8398 6.6992 7.6797 13.488 15.289 20.18 22.977 2.0586 2.3672 1.332 5.6523 1.4453 8.5117-0.03125 2.0898-1.3672 3.8164-2.7344 5.2656-5.207 5.8672-10.371 11.777-15.562 17.664-2.7891 3.332-5.8164 6.4922-9.2422 9.1758-5.6758 4.2305-13.234 5.8789-20.125 4.1875-9.6367-2.0234-17.406-10.465-18.969-20.145-0.58203-3.6367-0.32812-7.3789 0.52734-10.949-7.0352-0.015625-14.062-0.20312-21.105-0.12109 7.957 17.215 9.9336 37.117 5.5156 55.559-5.2266 22.668-20.223 42.973-40.547 54.359-6.4062 3.7227-13.406 6.2383-20.469 8.3906-16.996 6.207-31.559 19.215-39.102 35.73-0.99609 2.2109-2.8125 4.1914-5.2734 4.7031-3.6406 0.98047-7.7031-1.5391-8.5234-5.1992-0.60938-2.2188 0.17969-4.4727 1.1953-6.4297 1.4531-2.8125 3.0391-5.5586 4.6758-8.2617-25.109-25.434-50.266-50.82-75.375-76.254-20.605-20.785-41.105-41.684-61.777-62.387-4.1836-0.50781-8.5195-0.03125-12.758-0.23438-4.2773 5.6797-8.3359 11.527-12.645 17.172-2.1836 1.7148-4.6758 3.5977-7.6055 3.4336-13.262-0.023438-26.52 0.015625-39.781-0.015625-4.082 0.046875-7.5586-4.0586-6.8164-8.0781 0.53125-2.0547 0.89453-4.2656 2.2188-6 3.2578-4.4375 6.5039-8.8828 9.7422-13.344-3.1055-4.1875-6.1445-8.4258-9.2422-12.617-1.3438-1.7383-1.707-3.9688-2.2422-6.043-0.74219-4.0156 2.7305-8.1172 6.8125-8.0703 12.949-0.035156 25.891 0.011719 38.84-0.027344 3.4297-0.375 6.5898 1.6016 8.9453 3.8945 3.8164 5.1758 7.5391 10.422 11.414 15.555 5.0586-0.042969 10.113-0.007813 15.176-0.007813 0.60938 0.046876 1.2188-0.078124 1.6406-0.54687 44.918-43.336 89.844-86.668 134.75-130.02-2.7617-4.0039-5.2461-8.207-7.3789-12.574-1.1914-2.3203-1.3398-5.2578 0.12109-7.4922m16.414 30.957c-41.348 39.895-82.672 79.82-124.05 119.68 58.5-0.042969 117-0.003906 175.5-0.019531 3.7422-35.934-6.8398-73.109-28.984-101.66-1.1328-1.375-2.0508-3.0508-3.7188-3.8477-6.8945-3.7773-13.16-8.6367-18.746-14.16m43.996 24.371c17.082 28.406 24.789 62.297 21.723 95.301 4.0234-0.019531 8.043 0.011719 12.062-0.019531 4.6641-9.8438 7.1367-20.742 6.9336-31.645-0.066407-18.578-7.8555-36.992-21.148-49.977-5.5938-5.7422-12.391-10.168-19.57-13.66m90.332 77.363c-3.6914 0.86719-6.5586 4.0508-7.4922 7.6641-0.77344 3.1914-0.10156 6.6953 1.9062 9.3203 1.6055 0.58984 3.2422 1.3867 4.2266 2.8594 1.543 2.0234 1.582 4.75 1.1602 7.1562-0.59766 2.6562-2.8555 4.5664-5.3867 5.3281-3.2852 4.1914-2.8789 10.777 1.0547 14.414 3.6914 3.7617 10.352 4.0234 14.219 0.37891 1.5156-1.6328 3.3086-2.9922 4.7227-4.7266 5.1953-5.918 10.406-11.824 15.605-17.738-5.4844-6.2383-10.977-12.469-16.461-18.707-1.0703-1.1641-2.3398-2.1289-3.4023-3.3047-2.5469-2.6797-6.625-3.7383-10.152-2.6445m-341.2 12.688c1.0664 1.4141 2.0938 2.8516 3.1289 4.293 0.34766 0.39844 0.65234 1.0742 1.3086 0.96094 8.0156-0.011718 16.035 0.074219 24.055-0.046874-1.2891-1.7031-2.5195-3.4375-3.7773-5.1602-8.2383-0.089843-16.477 0-24.715-0.046875m4.1602 19.488c-1.5312 2.1211-3.0703 4.2383-4.6328 6.3438 8.2422-0.058594 16.484 0.050781 24.727-0.058594 1.5039-2.082 3.0156-4.168 4.5352-6.2383-8.207-0.15625-16.422-0.089843-24.629-0.046874m74.922-0.078126c42.035 42.465 84.035 84.957 126.03 127.47 4.9883-5.4062 10.617-10.211 16.773-14.242 2.5625-2.2812 4.4531-5.2148 6.7695-7.7383 10.012-12.684 17.762-27.137 22.926-42.441 6.8203-20.18 9.0391-41.879 6.5078-63.023-59.668-0.019531-119.34 0.023438-179-0.023438m193.29 0.023438c3.8906 35.199-4.4648 71.656-23.559 101.51 5.7852-2.4492 11.332-5.5117 16.297-9.3789 12.586-9.8008 21.781-23.93 25.438-39.477 4.3633-17.656 1.5977-36.953-7.5742-52.656-3.5352-0.007812-7.0664 0-10.602 0z"/>
</svg>
