<?xml version="1.0" encoding="UTF-8"?>
<svg width="752pt" height="752pt" version="1.1" viewBox="0 0 752 752" xmlns="http://www.w3.org/2000/svg">
 <defs>
  <clipPath id="a">
   <path d="m139.21 146h473.58v460h-473.58z"/>
  </clipPath>
 </defs>
 <g clip-path="url(#a)">
  <path d="m438.68 396.89c37.66 0 70.602 23.168 84.082 56.891 4.3984-0.77734 8.8867-1.1758 13.422-1.1758 42.309 0 76.609 34.301 76.609 76.609s-34.301 76.609-76.609 76.609h-188.04c-38.465 0-69.645-31.18-69.645-69.645s31.18-69.645 69.645-69.645c0.80469 0 1.6094 0.011719 2.4102 0.042969 9.4453-40.109 45.48-69.688 88.125-69.688zm0 27.859c-33.039 0-60.355 25.656-62.539 58.438-0.57812 8.7227-8.9531 14.758-17.41 12.555-3.4219-0.89453-6.9688-1.3477-10.586-1.3477-23.078 0-41.789 18.707-41.789 41.785s18.711 41.785 41.789 41.785h188.04c26.926 0 48.75-21.824 48.75-48.75s-21.824-48.75-48.75-48.75c-6.1328 0-12.086 1.125-17.66 3.293-7.957 3.0938-16.801-1.6328-18.648-9.9688-6.3047-28.445-31.66-49.039-61.195-49.039zm-188.11-87.676-40.324 4.0312c-3.4727 0.34766-6.9531-0.62109-9.7461-2.7148l-55.715-41.789c-6.1523-4.6133-7.3984-13.344-2.7852-19.5 4.6172-6.1523 13.348-7.3984 19.5-2.7852l51.375 38.531 41.211-4.1211c-11.832-19.074-6.4688-44.23 12.344-56.773 0.37109-0.24609 0.37109-0.24609 0.74609-0.48828l29.594-18.832c12.34-7.8516 27.262-8.4297 39.695-2.8047l-2.1602-19.438c-0.32812-2.9336 0.28516-5.8906 1.75-8.4492l27.855-48.75c3.8164-6.6797 12.328-9 19.004-5.1836 6.6797 3.8164 9 12.324 5.1836 19.004l-25.605 44.812 6.0898 54.801 23.484 35.227 51.508 19.316c7.2031 2.7031 10.855 10.73 8.1523 17.934-2.6992 7.2031-10.73 10.852-17.934 8.1523l-55.715-20.895c-2.7344-1.0234-5.0781-2.8867-6.6992-5.3164l-20.293-30.441-62.625 39.852-40.156 60.234c-1.7969 2.6992-4.4805 4.6836-7.5859 5.6172l-69.645 20.891c-7.3672 2.2109-15.133-1.9688-17.344-9.3359-2.2109-7.3711 1.9727-15.137 9.3398-17.344l64.84-19.453zm80.223-76.914c-4.2031-6.3047-12.676-8.0898-19.066-4.0234l-29.594 18.832c-0.125 0.082032-0.125 0.082032-0.25 0.16016-6.3984 4.2695-8.1289 12.918-3.8633 19.316l4.5078 6.7656 53.102-33.793zm107.89 32.266c-30.77 0-55.715-24.945-55.715-55.715 0-30.773 24.945-55.719 55.715-55.719 30.773 0 55.719 24.945 55.719 55.719 0 30.77-24.945 55.715-55.719 55.715zm0-27.859c15.387 0 27.859-12.473 27.859-27.855 0-15.387-12.473-27.859-27.859-27.859-15.383 0-27.855 12.473-27.855 27.859 0 15.383 12.473 27.855 27.855 27.855z"/>
 </g>
</svg>
