<?xml version="1.0" encoding="UTF-8"?>
<svg width="752pt" height="752pt" version="1.1" viewBox="0 0 752 752" xmlns="http://www.w3.org/2000/svg">
 <defs>
  <clipPath id="d">
   <path d="m265 139.21h45v44.789h-45z"/>
  </clipPath>
  <clipPath id="c">
   <path d="m486 139.21h75v74.789h-75z"/>
  </clipPath>
  <clipPath id="b">
   <path d="m294 139.21h238v15.789h-238z"/>
  </clipPath>
  <clipPath id="a">
   <path d="m198 546h356v66.793h-356z"/>
  </clipPath>
 </defs>
 <g clip-path="url(#d)">
  <path d="m272.47 183.62c-1.9609 0-3.8438-0.77734-5.2305-2.168-1.3906-1.3867-2.168-3.2695-2.168-5.2305 0.011719-9.8125 3.9141-19.215 10.852-26.152 6.9336-6.9336 16.34-10.836 26.148-10.848 4.0859 0 7.3984 3.3125 7.3984 7.3984 0 4.0859-3.3125 7.4023-7.3984 7.4023-5.8867 0.003907-11.527 2.3438-15.691 6.5078-4.1602 4.1602-6.5039 9.8047-6.5078 15.691 0 1.9609-0.77734 3.8438-2.168 5.2305-1.3867 1.3906-3.2695 2.168-5.2344 2.168z"/>
 </g>
 <g clip-path="url(#c)">
  <path d="m523.96 213.21c-9.8125 0-19.223-3.8984-26.16-10.836s-10.836-16.348-10.836-26.16c0-9.8164 3.8984-19.227 10.836-26.164s16.348-10.836 26.16-10.836 19.227 3.8984 26.164 10.836 10.836 16.348 10.836 26.164c-0.011719 9.8086-3.9141 19.211-10.848 26.148-6.9375 6.9336-16.34 10.836-26.152 10.848zm0-59.199v0.003906c-5.8867 0-11.531 2.3359-15.695 6.5-4.1641 4.1641-6.5039 9.8086-6.5039 15.699 0 5.8867 2.3398 11.531 6.5039 15.695 4.1641 4.1641 9.8086 6.5 15.695 6.5 5.8906 0 11.535-2.3359 15.699-6.5 4.1641-4.1641 6.5-9.8086 6.5-15.695-0.003906-5.8867-2.3477-11.531-6.5078-15.691-4.1602-4.1641-9.8047-6.5039-15.691-6.5078z"/>
 </g>
 <g clip-path="url(#b)">
  <path d="m523.96 154.02h-221.89c-4.0859 0-7.4023-3.3164-7.4023-7.4023 0-4.0859 3.3164-7.3984 7.4023-7.3984h221.9-0.003906c4.0898 0 7.4023 3.3125 7.4023 7.3984 0 4.0859-3.3125 7.4023-7.4023 7.4023z"/>
 </g>
 <path d="m568.36 183.62h-44.398c-4.0859 0-7.3984-3.3125-7.3984-7.3984 0-4.0898 3.3125-7.4023 7.3984-7.4023h44.398c4.0898 0 7.4023 3.3125 7.4023 7.4023 0 4.0859-3.3125 7.3984-7.4023 7.3984z"/>
 <path d="m242.87 494.29c-13.219 0-25.434-7.0508-32.039-18.5-6.6094-11.449-6.6094-25.551 0-37 6.6055-11.445 18.82-18.496 32.039-18.496 4.0859 0 7.4023 3.3125 7.4023 7.3984 0 4.0859-3.3164 7.3984-7.4023 7.3984-7.9297 0-15.258 4.2305-19.223 11.102-3.9688 6.8672-3.9688 15.328 0 22.199 3.9648 6.8672 11.293 11.098 19.223 11.098 4.0859 0 7.4023 3.3125 7.4023 7.3984 0 4.0898-3.3164 7.4023-7.4023 7.4023z"/>
 <path d="m464.77 494.29c-9.8125 0-19.223-3.8984-26.164-10.836-6.9375-6.9414-10.836-16.352-10.836-26.164s3.8984-19.223 10.836-26.16c6.9414-6.9414 16.352-10.836 26.164-10.836s19.223 3.8945 26.16 10.836c6.9414 6.9375 10.836 16.348 10.836 26.16-0.007813 9.8086-3.9102 19.215-10.848 26.148-6.9375 6.9375-16.34 10.84-26.148 10.852zm0-59.199c-5.8867 0-11.535 2.3398-15.699 6.5039-4.1602 4.1602-6.5 9.8086-6.5 15.695 0 5.8867 2.3398 11.535 6.5 15.699 4.1641 4.1602 9.8125 6.5 15.699 6.5s11.535-2.3398 15.695-6.5c4.1641-4.1641 6.5039-9.8125 6.5039-15.699-0.007812-5.8867-2.3477-11.527-6.5117-15.688-4.1602-4.1641-9.8008-6.5039-15.688-6.5117z"/>
 <path d="m464.77 494.29h-221.9c-4.0859 0-7.3984-3.3125-7.3984-7.4023 0-4.0859 3.3125-7.3984 7.3984-7.3984h221.9c4.0859 0 7.3984 3.3125 7.3984 7.3984 0 4.0898-3.3125 7.4023-7.3984 7.4023z"/>
 <path d="m464.77 435.09h-221.9c-4.0859 0-7.3984-3.3125-7.3984-7.3984 0-4.0859 3.3125-7.3984 7.3984-7.3984h221.9c4.0859 0 7.3984 3.3125 7.3984 7.3984 0 4.0859-3.3125 7.3984-7.3984 7.3984z"/>
 <path d="m509.17 464.69h-44.398c-4.0859 0-7.3984-3.3125-7.3984-7.3984 0-4.0859 3.3125-7.3984 7.3984-7.3984h44.398c4.0859 0 7.3984 3.3125 7.3984 7.3984 0 4.0859-3.3125 7.3984-7.3984 7.3984z"/>
 <path d="m272.47 435.09c-1.9609 0-3.8438-0.77734-5.2305-2.1641-1.3906-1.3906-2.168-3.2734-2.168-5.2344v-251.47c0-4.0898 3.3125-7.4023 7.3984-7.4023 4.0898 0 7.4023 3.3125 7.4023 7.4023v251.47c0 1.9609-0.77734 3.8438-2.168 5.2344-1.3867 1.3867-3.2695 2.1641-5.2344 2.1641z"/>
 <path d="m494.37 464.69c-1.9609 0.003906-3.8438-0.77734-5.2344-2.1641-1.3867-1.3867-2.1641-3.2695-2.1641-5.2344v-281.07c0-4.0898 3.3125-7.4023 7.3984-7.4023 4.0859 0 7.3984 3.3125 7.3984 7.4023v281.07c0.003906 1.9648-0.77734 3.8477-2.1641 5.2344-1.3867 1.3867-3.2695 2.168-5.2344 2.1641z"/>
 <path d="m523.96 494.4c-1.9609 0.003906-3.8438-0.77734-5.2305-2.1641-1.3906-1.3867-2.168-3.2695-2.168-5.2344v-281.19c0-4.0859 3.3125-7.4023 7.3984-7.4023 4.0898 0 7.4023 3.3164 7.4023 7.4023v281.19c0 1.9648-0.77734 3.8477-2.168 5.2344-1.3867 1.3867-3.2695 2.168-5.2344 2.1641z"/>
 <path d="m457.41 213.21h-148c-4.0859 0-7.3984-3.3125-7.3984-7.3984 0-4.0859 3.3125-7.4023 7.3984-7.4023h148c4.0859 0 7.3984 3.3164 7.3984 7.4023 0 4.0859-3.3125 7.3984-7.3984 7.3984z"/>
 <path d="m457.41 242.81h-148c-4.0859 0-7.3984-3.3164-7.3984-7.4023s3.3125-7.3984 7.3984-7.3984h148c4.0859 0 7.3984 3.3125 7.3984 7.3984s-3.3125 7.4023-7.3984 7.4023z"/>
 <path d="m457.41 272.4h-148c-4.0859 0-7.3984-3.3125-7.3984-7.3984 0-4.0898 3.3125-7.4023 7.3984-7.4023h148c4.0859 0 7.3984 3.3125 7.3984 7.4023 0 4.0859-3.3125 7.3984-7.3984 7.3984z"/>
 <path d="m457.41 301.99h-148c-4.0859 0-7.3984-3.3125-7.3984-7.3984 0-4.0859 3.3125-7.3984 7.3984-7.3984h148c4.0859 0 7.3984 3.3125 7.3984 7.3984 0 4.0859-3.3125 7.3984-7.3984 7.3984z"/>
 <path d="m457.41 331.58h-148c-4.0859 0-7.3984-3.3125-7.3984-7.3984 0-4.0898 3.3125-7.4023 7.3984-7.4023h148c4.0859 0 7.3984 3.3125 7.3984 7.4023 0 4.0859-3.3125 7.3984-7.3984 7.3984z"/>
 <path d="m457.41 361.17h-148c-4.0859 0-7.3984-3.3125-7.3984-7.3984 0-4.0859 3.3125-7.3984 7.3984-7.3984h148c4.0859 0 7.3984 3.3125 7.3984 7.3984 0 4.0859-3.3125 7.3984-7.3984 7.3984z"/>
 <path d="m457.41 390.77h-148c-4.0859 0-7.3984-3.3125-7.3984-7.4023 0-4.0859 3.3125-7.3984 7.3984-7.3984h148c4.0859 0 7.3984 3.3125 7.3984 7.3984 0 4.0898-3.3125 7.4023-7.3984 7.4023z"/>
 <path d="m568.39 538.8h-384.79c-1.9648 0.003907-3.8477-0.77734-5.2344-2.1641s-2.168-3.2695-2.1641-5.2344v-44.414c-0.003907-1.9609 0.77734-3.8438 2.1641-5.2305 1.3867-1.3906 3.2695-2.168 5.2344-2.168h384.79c1.9609 0 3.8438 0.77734 5.2344 2.168 1.3867 1.3867 2.1641 3.2695 2.1641 5.2305v44.414c0 1.9648-0.77734 3.8477-2.1641 5.2344-1.3906 1.3867-3.2734 2.168-5.2344 2.1641zm-377.39-14.801 369.98 0.003906v-29.613h-369.98z"/>
 <path d="m560.99 560.99h-369.98c-1.9609 0.003906-3.8438-0.77734-5.2344-2.1641-1.3867-1.3867-2.1641-3.2695-2.1641-5.2344v-22.191c0-1.9609 0.77734-3.8438 2.1641-5.2344 1.3906-1.3867 3.2734-2.168 5.2344-2.1641h369.98c1.9648-0.003906 3.8477 0.77734 5.2344 2.1641 1.3906 1.3906 2.168 3.2734 2.168 5.2344v22.191c0 1.9648-0.77734 3.8477-2.168 5.2344-1.3867 1.3867-3.2695 2.168-5.2344 2.1641zm-362.58-14.797h355.18v-7.3906l-355.18-0.003907z"/>
 <g clip-path="url(#a)">
  <path d="m546.2 612.79c-1.9648 0-3.8477-0.77734-5.2344-2.168-1.3867-1.3867-2.168-3.2695-2.168-5.2305v-44.395h-325.54v44.395c0 4.0859-3.3125 7.3984-7.3984 7.3984s-7.3984-3.3125-7.3984-7.3984v-51.793c-0.003907-1.9609 0.77734-3.8438 2.1641-5.2344 1.3867-1.3867 3.2695-2.1641 5.2344-2.1641h340.34c1.9609 0 3.8438 0.77734 5.2344 2.1641 1.3867 1.3906 2.1641 3.2734 2.1641 5.2344v51.793c0 1.9609-0.77734 3.8438-2.1641 5.2305-1.3906 1.3906-3.2734 2.168-5.2344 2.168z"/>
 </g>
</svg>
