<?xml version="1.0" encoding="UTF-8"?>
<svg width="752pt" height="752pt" version="1.1" viewBox="0 0 752 752" xmlns="http://www.w3.org/2000/svg">
 <defs>
  <clipPath id="d">
   <path d="m368 139.21h90v89.789h-90z"/>
  </clipPath>
  <clipPath id="c">
   <path d="m294 139.21h90v89.789h-90z"/>
  </clipPath>
  <clipPath id="b">
   <path d="m368 583h31v29.793h-31z"/>
  </clipPath>
  <clipPath id="a">
   <path d="m353 583h31v29.793h-31z"/>
  </clipPath>
 </defs>
 <path d="m361.2 597.98c-89.766 0-162.79-73.027-162.79-162.79 0-4.0938 3.3086-7.3984 7.3984-7.3984 4.0938 0 7.3984 3.3086 7.3984 7.3984 0 81.605 66.391 147.99 147.99 147.99 4.0938 0 7.3984 3.3086 7.3984 7.3984 0.003906 4.0938-3.3047 7.4023-7.3945 7.4023z"/>
 <g clip-path="url(#d)">
  <path d="m450 228.01c-44.879 0-81.398-36.516-81.398-81.398 0-4.0938 3.3086-7.3984 7.3984-7.3984 4.0938 0 7.3984 3.3086 7.3984 7.3984 0 36.727 29.871 66.598 66.598 66.598 4.0938 0 7.3984 3.3086 7.3984 7.3984 0.003907 4.0938-3.3047 7.4023-7.3945 7.4023z"/>
 </g>
 <path d="m390.8 597.98c-4.0938 0-7.3984-3.3086-7.3984-7.3984 0-4.0938 3.3086-7.3984 7.3984-7.3984 81.605 0 147.99-66.391 147.99-147.99 0-4.0938 3.3086-7.3984 7.3984-7.3984 4.0938 0 7.3984 3.3086 7.3984 7.3984 0.003906 89.762-73.023 162.79-162.79 162.79z"/>
 <path d="m516.6 228.01c-4.0938 0-7.3984-3.3086-7.3984-7.3984 0-4.0938 3.3086-7.3984 7.3984-7.3984 12.238 0 22.199-9.9609 22.199-22.199 0-4.0938 3.3086-7.3984 7.3984-7.3984 4.0938 0 7.3984 3.3086 7.3984 7.3984 0 20.398-16.598 36.996-36.996 36.996z"/>
 <path d="m516.6 228.01h-66.598c-4.0938 0-7.3984-3.3086-7.3984-7.3984 0-4.0938 3.3086-7.3984 7.3984-7.3984h66.598c4.0938 0 7.3984 3.3086 7.3984 7.3984s-3.3086 7.3984-7.3984 7.3984z"/>
 <path d="m546.2 442.59c-4.0938 0-7.3984-3.3086-7.3984-7.3984l-0.003906-244.18c0-4.0938 3.3086-7.3984 7.3984-7.3984 4.0938 0 7.3984 3.3086 7.3984 7.3984v244.18c0.003906 4.0938-3.3047 7.3984-7.3945 7.3984z"/>
 <g clip-path="url(#c)">
  <path d="m302 228.01c-4.0938 0-7.3984-3.3086-7.3984-7.3984 0-4.0938 3.3086-7.3984 7.3984-7.3984 36.727 0 66.598-29.871 66.598-66.598 0-4.0938 3.3086-7.3984 7.3984-7.3984 4.0938 0 7.3984 3.3086 7.3984 7.3984 0.003906 44.875-36.516 81.395-81.395 81.395z"/>
 </g>
 <path d="m235.41 228.01c-20.402 0-37-16.598-37-37 0-4.0938 3.3086-7.3984 7.3984-7.3984 4.0938 0 7.3984 3.3086 7.3984 7.3984 0 12.238 9.9609 22.199 22.199 22.199 4.0938 0 7.3984 3.3086 7.3984 7.3984 0.007813 4.0938-3.3008 7.4023-7.3945 7.4023z"/>
 <path d="m302 228.01h-66.598c-4.0938 0-7.3984-3.3086-7.3984-7.3984 0-4.0938 3.3086-7.3984 7.3984-7.3984h66.598c4.0938 0 7.3984 3.3086 7.3984 7.3984s-3.3047 7.3984-7.3984 7.3984z"/>
 <path d="m205.81 442.59c-4.0938 0-7.3984-3.3086-7.3984-7.3984v-244.18c0-4.0938 3.3086-7.3984 7.3984-7.3984 4.0938 0 7.3984 3.3086 7.3984 7.3984v244.18c0 4.0938-3.3086 7.3984-7.3984 7.3984z"/>
 <g clip-path="url(#b)">
  <path d="m376 612.79c-4.0938 0-7.3984-3.3086-7.3984-7.3984 0-12.238 9.9688-22.207 22.207-22.207 4.0938 0 7.3984 3.3086 7.3984 7.3984 0 4.0938-3.3086 7.3984-7.3984 7.3984-4.0859 0-7.4062 3.3242-7.4062 7.4062 0 4.0938-3.3086 7.4023-7.4023 7.4023z"/>
 </g>
 <g clip-path="url(#a)">
  <path d="m376 612.79c-4.0938 0-7.3984-3.3086-7.3984-7.3984 0-4.0859-3.3164-7.3984-7.3984-7.3984-4.0938 0-7.3984-3.3086-7.3984-7.3984 0-4.0938 3.3086-7.3984 7.3984-7.3984 12.238 0 22.199 9.9609 22.199 22.199 0 4.0859-3.3086 7.3945-7.4023 7.3945z"/>
 </g>
 <path d="m361.35 568.4c-0.14844 0-0.29687-0.007813-0.45703-0.015625-73.297-0.16406-132.89-59.855-132.89-133.2v-184.98c0-4.0938 3.3086-7.3984 7.3984-7.3984h66.598c26.016 0 50.414-10.309 68.707-29.008 2.7891-2.8477 7.793-2.8477 10.582 0 18.293 18.699 42.688 29.008 68.707 29.008h66.598c4.0938 0 7.3984 3.3086 7.3984 7.3984v184.98c0 73.441-59.754 133.2-133.2 133.2-4.0938 0-7.3984-3.3086-7.3984-7.3984 0-4.0938 3.3086-7.3984 7.3984-7.3984 65.281 0 118.39-53.113 118.39-118.39v-177.59h-59.199c-27.594 0-53.59-10.027-73.996-28.387-20.406 18.359-46.402 28.387-73.996 28.387h-59.199v177.59c0 65.281 53.113 118.39 118.39 118.39 0.24609 0 0.52344 0.015624 0.80078 0.042968 3.7812 0.33203 6.7422 3.5078 6.7422 7.3711 0.007812 4.0938-3.3086 7.4023-7.3906 7.4023z"/>
 <path d="m376.05 472.15c-36.695 0-66.547-29.852-66.547-66.539 0-4.0938 3.3086-7.3984 7.3984-7.3984 4.0938 0 7.3984 3.3086 7.3984 7.3984 0 28.527 23.211 51.738 51.746 51.738 28.535 0 51.746-23.211 51.746-51.738 0-4.0938 3.3086-7.3984 7.3984-7.3984 4.0938 0 7.3984 3.3086 7.3984 7.3984 0.003906 36.691-29.844 66.539-66.539 66.539z"/>
 <path d="m435.23 413.02c-4.0938 0-7.3984-3.3086-7.3984-7.3984 0-36.711-29.859-66.574-66.566-66.574-4.0938 0-7.3984-3.3086-7.3984-7.3984 0-4.0938 3.3086-7.3984 7.3984-7.3984 44.863 0 81.367 36.512 81.367 81.375 0 4.0859-3.3086 7.3945-7.4023 7.3945z"/>
 <path d="m316.86 383.46c-4.0938 0-7.3984-3.3086-7.3984-7.3984 0-4.0938 3.3086-7.3984 7.3984-7.3984 20.402 0 37-16.598 37-37.008 0-4.0938 3.3086-7.3984 7.3984-7.3984 4.0938 0 7.3984 3.3086 7.3984 7.3984 0 28.562-23.242 51.805-51.797 51.805z"/>
 <path d="m316.86 413.02c-4.0938 0-7.3984-3.3086-7.3984-7.3984v-29.555c0-4.0938 3.3086-7.3984 7.3984-7.3984 4.0938 0 7.3984 3.3086 7.3984 7.3984v29.555c0 4.0898-3.3086 7.3984-7.3984 7.3984z"/>
 <path d="m376.05 449.95c-24.332 0-44.148-19.691-44.348-43.969-0.023438-0.25781-0.035157-0.51953-0.035157-0.73438v-10.887c0-3.1289 1.9766-5.9258 4.9219-6.9688 15.887-5.6445 28.668-17.797 35.051-33.359 1.4961-3.6562 5.6094-5.4766 9.3164-4.168 23.473 8.3086 39.328 30.582 39.469 55.41 0 0.20703-0.007813 0.45703-0.03125 0.70312-0.19922 24.281-20.016 43.973-44.344 43.973zm-29.586-45.055c0.023437 0.25 0.035156 0.51172 0.035156 0.71875 0 16.285 13.254 29.539 29.547 29.539s29.547-13.254 29.547-29.539c0-0.17578 0.007812-0.39063 0.03125-0.59766-0.20703-16.219-9.4062-30.969-23.531-38.508-7.8359 14.602-20.395 26.219-35.629 32.883z"/>
 <path d="m376 516.6c-65.281 0-118.39-53.113-118.39-118.39s53.113-118.39 118.39-118.39 118.39 53.113 118.39 118.39c0.003907 65.281-53.113 118.39-118.39 118.39zm0-221.99c-57.125 0-103.6 46.469-103.6 103.6 0 57.125 46.469 103.6 103.6 103.6 57.125 0 103.6-46.469 103.6-103.6 0-57.129-46.469-103.6-103.6-103.6z"/>
 <path d="m390.8 568.39h-29.598c-4.0938 0-7.3984-3.3086-7.3984-7.3984 0-4.0938 3.3086-7.3984 7.3984-7.3984h29.598c4.0938 0 7.3984 3.3086 7.3984 7.3984 0 4.0898-3.3047 7.3984-7.3984 7.3984z"/>
</svg>
