<?xml version="1.0" encoding="UTF-8"?>
<svg width="752pt" height="752pt" version="1.1" viewBox="0 0 752 752" xmlns="http://www.w3.org/2000/svg">
 <defs>
  <clipPath id="a">
   <path d="m294 139.21h164v473.58h-164z"/>
  </clipPath>
 </defs>
 <g clip-path="url(#a)">
  <path d="m376 612.79c16.383-31.207 27.309-56.176 44.473-86.602-5.4609-78.801-11.703-158.38-17.164-237.18 25.746 1.5586 44.473-6.2422 53.832-27.309h-64.758v-76.461c5.4609-5.4609 9.3633-12.484 9.3633-20.285 0-14.043-11.703-25.746-25.746-25.746s-25.746 11.703-25.746 25.746c0 7.8008 3.1211 14.824 9.3633 20.285v76.461h-64.758c8.582 21.066 28.086 28.867 53.832 27.309-6.2422 78.801-11.703 158.38-17.164 237.18 16.383 30.43 27.309 55.395 44.473 86.602z" fill-rule="evenodd"/>
 </g>
</svg>
